<?xml version="1.0" encoding="UTF-8"?>
<svg version="1.1" xmlns="http://www.w3.org/2000/svg" width="225" height="225">
<path d="M0 0 C0 13.86 0 27.72 0 42 C-2.64 42.66 -5.28 43.32 -8 44 C-7.98952637 42.83952148 -7.97905273 41.67904297 -7.96826172 40.48339844 C-7.93204017 36.17467335 -7.90909164 31.86596171 -7.89013672 27.55712891 C-7.88008407 25.69284806 -7.86643995 23.82858297 -7.84912109 21.96435547 C-7.82484047 19.28348909 -7.81350953 16.60283134 -7.8046875 13.921875 C-7.79436493 13.08944275 -7.78404236 12.2570105 -7.77340698 11.39935303 C-7.73121793 5.91762763 -7.73121793 5.91762763 -10 1 C-6.56484998 0.37542727 -3.50935186 0 0 0 Z " fill="#FBFBFB" transform="translate(92,86)"/>
<path d="M0 0 C0 0.66 0 1.32 0 2 C-0.66 2 -1.32 2 -2 2 C-2 4.31 -2 6.62 -2 9 C-1.175 9.226875 -0.35 9.45375 0.5 9.6875 C4.74165578 11.27812092 8.54290592 13.03211734 12 16 C13.3125 19 13.3125 19 13 22 C10.46752294 25.45337781 8.86488983 26.78785721 4.6875 27.8125 C3.800625 27.874375 2.91375 27.93625 2 28 C2.66 27.01 3.32 26.02 4 25 C4.65633986 22.5297153 4.65633986 22.5297153 4 20 C1.42319442 17.92028383 1.42319442 17.92028383 -1.875 16.3125 C-7.89873418 13.10126582 -7.89873418 13.10126582 -10 11 C-9.77358491 4.77358491 -9.77358491 4.77358491 -7.125 2.125 C-4.73079532 0.85747988 -2.73585682 0 0 0 Z " fill="#FAFAFA" transform="translate(170,100)"/>
<path d="M0 0 C4.62 0 9.24 0 14 0 C13.67 1.98 13.34 3.96 13 6 C13.97531873 8.82917745 13.97531873 8.82917745 15.5 11.5 C17.17324735 14.92086125 18 16.64469957 18 20.5 C16.97700613 23.05748468 15.97414539 24.15460322 14 26 C12.37431783 22.91702588 10.74957416 19.83355811 9.125 16.75 C8.43470703 15.44095703 8.43470703 15.44095703 7.73046875 14.10546875 C7.28574219 13.26113281 6.84101562 12.41679688 6.3828125 11.546875 C5.77010498 10.38430176 5.77010498 10.38430176 5.14501953 9.19824219 C4.38686799 7.74272054 3.66299666 6.26878151 2.97607422 4.77832031 C2.12308504 2.82449999 2.12308504 2.82449999 0 2 C0 1.34 0 0.68 0 0 Z " fill="#FBFBFB" transform="translate(121,101)"/>
<path d="M0 0 C5.44250545 0.38875039 8.16552996 2.16552996 12 6 C14.25174832 9.62237773 14.27667749 12.80148936 13.609375 17.00390625 C12.32581337 21.20839339 9.51568355 23.94361449 5.9375 26.4375 C3.59837827 27.11659986 2.26850373 26.8101799 0 26 C0.46792969 25.59910156 0.93585937 25.19820312 1.41796875 24.78515625 C4.35165397 21.47480034 4.66099861 17.29805337 5 13 C4.58836657 7.78107622 4.1117414 3.52273161 0 0 Z " fill="#FAFAFA" transform="translate(59,101)"/>
<path d="M0 0 C0.99 0.33 1.98 0.66 3 1 C2.51144531 1.66902344 2.02289063 2.33804688 1.51953125 3.02734375 C-0.38278678 6.74884508 -0.36622647 9.40076524 -0.3125 13.5625 C-0.30863281 14.86316406 -0.30476563 16.16382813 -0.30078125 17.50390625 C0.07814324 21.90828834 0.91405025 23.91405025 4 27 C-0.87452354 26.54655595 -3.56374937 25.52912227 -7 22 C-9.46775879 17.94013876 -10.31858831 15.01182731 -9.5625 10.375 C-8.2622946 5.58304802 -6.07055767 3.71370511 -2 1 C-1.34 0.67 -0.68 0.34 0 0 Z " fill="#FAFAFA" transform="translate(52,101)"/>
<path d="M0 0 C4.86831281 0.45286631 7.48559226 1.58321469 11 5 C13.54389187 9.24278469 13.67092754 13.1693217 13 18 C10.64294907 22.89541347 8.1115842 25.15112912 3 27 C2.01 26.67 1.02 26.34 0 26 C0.474375 25.566875 0.94875 25.13375 1.4375 24.6875 C4.47510084 21.40689109 4.163154 17.88068037 4.1875 13.625 C4.20876953 11.94277344 4.20876953 11.94277344 4.23046875 10.2265625 C3.92104079 5.89457107 3.08585122 3.08585122 0 0 Z " fill="#FBFBFB" transform="translate(99,101)"/>
<path d="M0 0 C1.67542976 0.28604898 3.34385343 0.61781233 5 1 C5.625 2.875 5.625 2.875 6 5 C5.34 5.66 4.68 6.32 4 7 C1.375 6.625 1.375 6.625 -1 6 C-1.042721 4.33388095 -1.04063832 2.66617115 -1 1 C-0.67 0.67 -0.34 0.34 0 0 Z " fill="#F9F9F9" transform="translate(125,132)"/>
<path d="M0 0 C1.2065625 0.0309375 1.2065625 0.0309375 2.4375 0.0625 C3.0625 2.4375 3.0625 2.4375 3.4375 5.0625 C2.7775 5.7225 2.1175 6.3825 1.4375 7.0625 C-0.6875 6.6875 -0.6875 6.6875 -2.5625 6.0625 C-2.94468767 4.40635343 -3.27645102 2.73792976 -3.5625 1.0625 C-2.5625 0.0625 -2.5625 0.0625 0 0 Z " fill="#F7F8F8" transform="translate(163.5625,119.9375)"/>
<path d="M0 0 C1.66611905 -0.042721 3.33382885 -0.04063832 5 0 C6 1 6 1 6.0625 3.5625 C6.041875 4.366875 6.02125 5.17125 6 6 C3.625 6.625 3.625 6.625 1 7 C0.34 6.34 -0.32 5.68 -1 5 C-0.625 2.375 -0.625 2.375 0 0 Z " fill="#FAFAFA" transform="translate(174,101)"/>
<path d="M0 0 C2.64 0 5.28 0 8 0 C8 0.66 8 1.32 8 2 C5.5 3.625 5.5 3.625 3 5 C2.01 3.35 1.02 1.7 0 0 Z " fill="#F5F5F5" transform="translate(143,101)"/>
</svg>
